<svg width="7508" height="2619" xmlns="http://www.w3.org/2000/svg" xmlns:xlink="http://www.w3.org/1999/xlink" xml:space="preserve" overflow="hidden"><defs><clipPath id="clip0"><rect x="-2952" y="-400" width="7508" height="2619"/></clipPath><clipPath id="clip1"><rect x="2620" y="-222" width="298" height="295"/></clipPath><clipPath id="clip2"><rect x="2620" y="-222" width="298" height="295"/></clipPath><clipPath id="clip3"><rect x="2620" y="-222" width="298" height="295"/></clipPath><clipPath id="clip4"><rect x="3613" y="-214" width="295" height="306"/></clipPath><clipPath id="clip5"><rect x="3613" y="-214" width="295" height="306"/></clipPath><clipPath id="clip6"><rect x="3613" y="-214" width="295" height="306"/></clipPath><clipPath id="clip7"><rect x="1559" y="-184" width="308" height="316"/></clipPath><clipPath id="clip8"><rect x="1559" y="-184" width="308" height="317"/></clipPath><clipPath id="clip9"><rect x="1559" y="-184" width="308" height="317"/></clipPath><clipPath id="clip10"><rect x="161" y="-395" width="461" height="459"/></clipPath><clipPath id="clip11"><rect x="161" y="-395" width="461" height="459"/></clipPath><clipPath id="clip12"><rect x="161" y="-395" width="461" height="459"/></clipPath><clipPath id="clip13"><rect x="-2803" y="544" width="202" height="201"/></clipPath><clipPath id="clip14"><rect x="-2803" y="544" width="202" height="201"/></clipPath><clipPath id="clip15"><rect x="-2803" y="544" width="202" height="201"/></clipPath><clipPath id="clip16"><rect x="-2797" y="1345" width="203" height="201"/></clipPath><clipPath id="clip17"><rect x="-2797" y="1345" width="203" height="201"/></clipPath><clipPath id="clip18"><rect x="-2797" y="1345" width="203" height="201"/></clipPath><clipPath id="clip19"><rect x="-2793" y="954" width="202" height="203"/></clipPath><clipPath id="clip20"><rect x="-2793" y="954" width="202" height="203"/></clipPath><clipPath id="clip21"><rect x="-2793" y="954" width="202" height="203"/></clipPath><clipPath id="clip22"><rect x="-2804" y="185" width="202" height="204"/></clipPath><clipPath id="clip23"><rect x="-2804" y="185" width="202" height="204"/></clipPath><clipPath id="clip24"><rect x="-2804" y="185" width="202" height="204"/></clipPath><clipPath id="clip25"><rect x="-707" y="1078" width="365" height="385"/></clipPath><clipPath id="clip26"><rect x="-707" y="1078" width="365" height="385"/></clipPath><clipPath id="clip27"><rect x="-707" y="1078" width="365" height="385"/></clipPath><clipPath id="clip28"><rect x="-1072" y="1357" width="366" height="385"/></clipPath><clipPath id="clip29"><rect x="-1072" y="1357" width="366" height="385"/></clipPath><clipPath id="clip30"><rect x="-1072" y="1357" width="366" height="385"/></clipPath><clipPath id="clip31"><rect x="-1069" y="1078" width="367" height="385"/></clipPath><clipPath id="clip32"><rect x="-1069" y="1078" width="367" height="385"/></clipPath><clipPath id="clip33"><rect x="-1069" y="1078" width="367" height="385"/></clipPath><clipPath id="clip34"><rect x="-700" y="1357" width="365" height="385"/></clipPath><clipPath id="clip35"><rect x="-700" y="1357" width="365" height="385"/></clipPath><clipPath id="clip36"><rect x="-700" y="1357" width="365" height="385"/></clipPath><clipPath id="clip37"><rect x="-1551" y="1024" width="130" height="130"/></clipPath><clipPath id="clip38"><rect x="-1551" y="1024" width="130" height="130"/></clipPath><clipPath id="clip39"><rect x="-1551" y="1024" width="130" height="130"/></clipPath><clipPath id="clip40"><rect x="-1551" y="1024" width="130" height="130"/></clipPath><clipPath id="clip41"><rect x="-1551" y="1024" width="130" height="130"/></clipPath><clipPath id="clip42"><rect x="-1551" y="1024" width="130" height="130"/></clipPath><clipPath id="clip43"><rect x="-1561" y="1314" width="149" height="151"/></clipPath><clipPath id="clip44"><rect x="-1561" y="1314" width="149" height="151"/></clipPath><clipPath id="clip45"><rect x="-1561" y="1314" width="149" height="151"/></clipPath><clipPath id="clip46"><rect x="-1561" y="1623" width="150" height="153"/></clipPath><clipPath id="clip47"><rect x="-1561" y="1623" width="150" height="153"/></clipPath><clipPath id="clip48"><rect x="-1561" y="1623" width="150" height="153"/></clipPath><clipPath id="clip49"><rect x="-917" y="-401" width="460" height="460"/></clipPath><clipPath id="clip50"><rect x="-917" y="-401" width="460" height="460"/></clipPath><clipPath id="clip51"><rect x="-917" y="-401" width="460" height="460"/></clipPath><clipPath id="clip52"><rect x="-2797" y="1795" width="203" height="202"/></clipPath><clipPath id="clip53"><rect x="-2797" y="1795" width="203" height="202"/></clipPath><clipPath id="clip54"><rect x="-2797" y="1795" width="203" height="202"/></clipPath><clipPath id="clip55"><rect x="110" y="1014" width="164" height="165"/></clipPath><clipPath id="clip56"><rect x="110" y="1014" width="164" height="165"/></clipPath><clipPath id="clip57"><rect x="110" y="1014" width="164" height="165"/></clipPath><clipPath id="clip58"><rect x="476" y="1017" width="164" height="165"/></clipPath><clipPath id="clip59"><rect x="476" y="1017" width="164" height="165"/></clipPath><clipPath id="clip60"><rect x="476" y="1017" width="164" height="165"/></clipPath><clipPath id="clip61"><rect x="101" y="712" width="165" height="164"/></clipPath><clipPath id="clip62"><rect x="101" y="712" width="165" height="164"/></clipPath><clipPath id="clip63"><rect x="101" y="712" width="165" height="164"/></clipPath><clipPath id="clip64"><rect x="478" y="713" width="165" height="165"/></clipPath><clipPath id="clip65"><rect x="478" y="713" width="165" height="165"/></clipPath><clipPath id="clip66"><rect x="478" y="713" width="165" height="165"/></clipPath><clipPath id="clip67"><rect x="295" y="1343" width="164" height="164"/></clipPath><clipPath id="clip68"><rect x="295" y="1343" width="164" height="164"/></clipPath><clipPath id="clip69"><rect x="295" y="1343" width="164" height="164"/></clipPath></defs><g clip-path="url(#clip0)" transform="translate(2952 400)"><rect x="3451" y="529" width="637" height="1547" fill="#FCE4DF"/><rect x="992" y="-353" width="3564" height="2565" fill="#FCE4DF"/><path d="M765 1418.25 1149.73 1418.25 1149.73 1445.75 765 1445.75ZM1135.98 1390.75 1218.48 1432 1135.98 1473.25Z"/><rect x="2296" y="513" width="869" height="1566" fill="#F8C8C0"/><text fill="#281B10" font-family="Arial,Arial_MSFontService,sans-serif" font-weight="700" font-size="73" transform="matrix(1 0 0 1 2414.22 601)">Training Predictor</text><rect x="2349" y="1609" width="778" height="328" fill="#FFFFFF"/><text fill="#281B10" font-family="Arial,Arial_MSFontService,sans-serif" font-weight="700" font-size="64" transform="matrix(1 0 0 1 2597.79 1688)">Bayesian</text><text fill="#281B10" font-family="Arial,Arial_MSFontService,sans-serif" font-weight="700" font-size="64" transform="matrix(1 0 0 1 2492.38 1765)">Hyperparameter </text><text fill="#281B10" font-family="Arial,Arial_MSFontService,sans-serif" font-weight="700" font-size="64" transform="matrix(1 0 0 1 2544.51 1842)">Optimization</text><rect x="2357" y="704" width="778" height="868" stroke="#000000" stroke-width="13.75" stroke-miterlimit="8" stroke-dasharray="55 41.25" fill="#FFFFFF"/><text fill="#281B10" font-family="Arial,Arial_MSFontService,sans-serif" font-weight="700" font-size="64" transform="matrix(1 0 0 1 2635.89 783)">Models</text><text fill="#281B10" font-family="Arial,Arial_MSFontService,sans-serif" font-weight="400" font-size="64" transform="matrix(1 0 0 1 2704.92 860)">LR</text><text fill="#281B10" font-family="Arial,Arial_MSFontService,sans-serif" font-weight="400" font-size="64" transform="matrix(1 0 0 1 2655.07 937)">LGBM</text><text fill="#281B10" font-family="Arial,Arial_MSFontService,sans-serif" font-weight="400" font-size="64" transform="matrix(1 0 0 1 2703.2 1014)">RF</text><text fill="#281B10" font-family="Arial,Arial_MSFontService,sans-serif" font-weight="400" font-size="64" transform="matrix(1 0 0 1 2676.27 1091)">RNN</text><text fill="#281B10" font-family="Arial,Arial_MSFontService,sans-serif" font-weight="400" font-size="64" transform="matrix(1 0 0 1 2660.53 1168)">LSTM</text><text fill="#281B10" font-family="Arial,Arial_MSFontService,sans-serif" font-weight="400" font-size="64" transform="matrix(1 0 0 1 2674.55 1245)">GRU</text><text fill="#281B10" font-family="Arial,Arial_MSFontService,sans-serif" font-weight="400" font-size="64" transform="matrix(1 0 0 1 2680.01 1322)">TCN</text><text fill="#281B10" font-family="Arial,Arial_MSFontService,sans-serif" font-weight="400" font-size="64" transform="matrix(1 0 0 1 2572 1399)">Transformer</text><text font-family="Arial,Arial_MSFontService,sans-serif" font-weight="700" font-size="85" transform="matrix(6.12323e-17 1 -1 6.12323e-17 2740.75 1454)">…</text><path d="M0-13.75 27.5-13.75 27.5 13.75 0 13.75ZM55-13.75 82.5-13.75 82.5 13.75 55 13.75ZM110-13.75 137.5-13.75 137.5 13.75 110 13.75ZM162.615-11.3645 190.115-11.3645 190.115 16.1355 162.615 16.1355ZM199.371-38.8645 281.871 2.3855 199.371 43.6355Z" transform="matrix(1.83697e-16 1 1 -1.83697e-16 360 371)"/><text font-family="Arial,Arial_MSFontService,sans-serif" font-style="italic" font-weight="400" font-size="110" transform="matrix(1 0 0 1 398.323 502)">Select</text><text font-family="Arial,Arial_MSFontService,sans-serif" font-weight="400" font-size="183" transform="matrix(6.12323e-17 1 -1 6.12323e-17 4316.55 -242)">Yet Another ICU Benchmark</text><rect x="1254" y="-228" width="2948" height="616" fill="#F2F2F2"/><g clip-path="url(#clip1)"><g clip-path="url(#clip2)"><g clip-path="url(#clip3)"><path d="M70.4375 251.125 70.4375 42.875 147 42.875 147 107.187 223.562 107.187 223.562 251.125 70.4375 251.125ZM165.375 50.5312 203.656 88.8125 165.375 88.8125 165.375 50.5312ZM165.375 24.5 52.0625 24.5 52.0625 269.5 241.937 269.5 241.937 91.875 165.375 24.5Z" transform="matrix(1.0102 0 0 1 2620 -221)"/><path d="M88.8125 137.812 205.187 137.812 205.187 150.062 88.8125 150.062Z" transform="matrix(1.0102 0 0 1 2620 -221)"/><path d="M88.8125 113.312 128.625 113.312 128.625 125.562 88.8125 125.562Z" transform="matrix(1.0102 0 0 1 2620 -221)"/><path d="M88.8125 162.312 205.187 162.312 205.187 174.562 88.8125 174.562Z" transform="matrix(1.0102 0 0 1 2620 -221)"/><path d="M88.8125 186.812 205.187 186.812 205.187 199.062 88.8125 199.062Z" transform="matrix(1.0102 0 0 1 2620 -221)"/><path d="M88.8125 211.312 205.187 211.312 205.187 223.562 88.8125 223.562Z" transform="matrix(1.0102 0 0 1 2620 -221)"/></g></g></g><text font-family="Arial,Arial_MSFontService,sans-serif" font-weight="400" font-size="85" transform="matrix(1 0 0 1 2700.18 209)">Task</text><text font-family="Arial,Arial_MSFontService,sans-serif" font-weight="400" font-size="85" transform="matrix(1 0 0 1 2614.81 311)">Definition</text><text font-family="Arial,Arial_MSFontService,sans-serif" font-weight="400" font-size="85" transform="matrix(1 0 0 1 3435.85 202)">Model Settings &amp; </text><text font-family="Arial,Arial_MSFontService,sans-serif" font-weight="400" font-size="85" transform="matrix(1 0 0 1 3428.98 304)">Hyperparameters </text><g clip-path="url(#clip4)"><g clip-path="url(#clip5)"><g clip-path="url(#clip6)"><path d="M42.875 122.5 85.75 122.5 85.75 165.375 42.875 165.375Z" transform="matrix(6.33151e-17 1.03401 -1 6.12323e-17 3907 -213)"/><path d="M208.25 122.5 251.125 122.5 251.125 165.375 208.25 165.375Z" transform="matrix(6.33151e-17 1.03401 -1 6.12323e-17 3907 -213)"/><path d="M42.875 39.8125 85.75 39.8125 85.75 82.6875 42.875 82.6875Z" transform="matrix(6.33151e-17 1.03401 -1 6.12323e-17 3907 -213)"/><path d="M42.875 205.187 85.75 205.187 85.75 248.062 42.875 248.062Z" transform="matrix(6.33151e-17 1.03401 -1 6.12323e-17 3907 -213)"/><path d="M153.125 55.125 98 55.125 98 67.375 140.875 67.375 140.875 137.812 98 137.812 98 150.062 140.875 150.062 140.875 220.5 98 220.5 98 232.75 153.125 232.75 153.125 150.062 196 150.062 196 137.812 153.125 137.812 153.125 55.125Z" transform="matrix(6.33151e-17 1.03401 -1 6.12323e-17 3907 -213)"/></g></g></g><text font-family="Arial,Arial_MSFontService,sans-serif" font-weight="400" font-size="85" transform="matrix(1 0 0 1 1419.19 242)">Pre</text><text font-family="Arial,Arial_MSFontService,sans-serif" font-weight="400" font-size="85" transform="matrix(1 0 0 1 1551.53 242)">-</text><text font-family="Arial,Arial_MSFontService,sans-serif" font-weight="400" font-size="85" transform="matrix(1 0 0 1 1579.61 242)">processor</text><text font-family="Arial,Arial_MSFontService,sans-serif" font-weight="400" font-size="85" transform="matrix(1 0 0 1 1432.64 344)">Configuration</text><g clip-path="url(#clip7)"><g clip-path="url(#clip8)"><g clip-path="url(#clip9)"><path d="M189.636 119.282C176.205 119.282 165.652 108.409 165.652 95.2979 165.652 82.1864 176.525 71.3135 189.636 71.3135 203.068 71.3135 213.621 82.1864 213.621 95.2979 213.621 108.409 202.748 119.282 189.636 119.282ZM243.681 80.2677C242.402 75.7906 240.803 71.6333 238.565 67.7958L243.681 52.7656 232.169 41.2531 217.139 46.3698C213.301 44.1312 209.144 42.5323 204.667 41.2531L197.631 27.1823 181.642 27.1823 174.606 41.2531C170.129 42.5323 165.972 44.1312 162.134 46.3698L147.104 41.2531 135.592 52.7656 140.708 67.7958C138.47 71.6333 136.871 75.7906 135.592 80.2677L121.521 87.3031 121.521 103.293 135.592 110.328C136.871 114.805 138.47 118.962 140.708 122.8L135.592 137.83 146.784 149.023 161.815 143.906C165.652 146.145 169.809 147.744 174.286 149.023L181.322 163.094 197.311 163.094 204.347 149.023C208.824 147.744 212.981 146.145 216.819 143.906L231.849 149.023 243.361 137.83 238.245 122.8C240.483 118.962 242.402 114.485 243.681 110.328L257.752 103.293 257.752 87.3031 243.681 80.2677Z" transform="matrix(1 0 0 1.02932 1560 -184)"/><path d="M117.364 235.686C103.932 235.686 93.3792 224.814 93.3792 211.702 93.3792 198.271 104.252 187.718 117.364 187.718 130.795 187.718 141.348 198.591 141.348 211.702 141.348 224.814 130.795 235.686 117.364 235.686L117.364 235.686ZM166.292 184.2 171.408 169.17 159.896 157.657 144.866 162.774C141.028 160.535 136.551 158.936 132.394 157.657L125.358 143.586 109.369 143.586 102.333 157.657C97.8562 158.936 93.6989 160.535 89.8615 162.774L74.8312 157.657 63.6385 168.85 68.4354 183.88C66.1969 187.718 64.5979 192.195 63.3187 196.352L49.2479 203.387 49.2479 219.377 63.3187 226.412C64.5979 230.89 66.1969 235.047 68.4354 238.884L63.6385 253.915 74.8312 265.107 89.8615 260.31C93.6989 262.549 97.8562 264.148 102.333 265.427L109.369 279.498 125.358 279.498 132.394 265.427C136.871 264.148 141.028 262.549 144.866 260.31L159.896 265.427 171.089 253.915 166.292 239.204C168.53 235.367 170.129 231.209 171.408 226.732L185.479 219.697 185.479 203.707 171.408 196.672C170.129 192.195 168.53 188.037 166.292 184.2Z" transform="matrix(1 0 0 1.02932 1560 -184)"/></g></g></g><rect x="1254" y="515" width="869" height="1561" fill="#F8C8C0"/><text fill="#281B10" font-family="Arial,Arial_MSFontService,sans-serif" font-weight="700" font-size="77" transform="matrix(1 0 0 1 1410.21 605)">Pre</text><text fill="#281B10" font-family="Arial,Arial_MSFontService,sans-serif" font-weight="700" font-size="77" transform="matrix(1 0 0 1 1533.39 605)">-</text><text fill="#281B10" font-family="Arial,Arial_MSFontService,sans-serif" font-weight="700" font-size="77" transform="matrix(1 0 0 1 1558.59 605)">processing</text><rect x="1303" y="693" width="771" height="528" stroke="#000000" stroke-width="13.75" stroke-miterlimit="8" stroke-dasharray="55 41.25" fill="#FFFFFF"/><text fill="#281B10" font-family="Arial,Arial_MSFontService,sans-serif" font-weight="400" font-size="64" transform="matrix(1 0 0 1 1583.79 772)">Scaling</text><text fill="#281B10" font-family="Arial,Arial_MSFontService,sans-serif" font-weight="400" font-size="64" transform="matrix(1 0 0 1 1432.54 849)">Missing Indicators</text><text fill="#281B10" font-family="Arial,Arial_MSFontService,sans-serif" font-weight="400" font-size="64" transform="matrix(1 0 0 1 1539.4 925)">Imputation</text><text fill="#281B10" font-family="Arial,Arial_MSFontService,sans-serif" font-weight="400" font-size="64" transform="matrix(1 0 0 1 1427.68 1002)">Feature Extraction</text><rect x="1303" y="1282" width="771" height="320" fill="#FFFFFF"/><text fill="#281B10" font-family="Arial,Arial_MSFontService,sans-serif" font-weight="700" font-size="64" transform="matrix(1 0 0 1 1560.87 1438)">Splitting</text><text fill="#281B10" font-family="Arial,Arial_MSFontService,sans-serif" font-weight="400" font-size="64" transform="matrix(1 0 0 1 1509.04 1515)">Fold splitting</text><rect x="1303" y="1643" width="771" height="319" fill="#FFFFFF"/><text fill="#281B10" font-family="Arial,Arial_MSFontService,sans-serif" font-weight="700" font-size="64" transform="matrix(1 0 0 1 1562.6 1798)">Caching</text><text fill="#281B10" font-family="Arial,Arial_MSFontService,sans-serif" font-weight="400" font-size="64" transform="matrix(1 0 0 1 1390.16 1875)">Cache data for reuse</text><text font-family="Arial,Arial_MSFontService,sans-serif" font-weight="700" font-size="85" transform="matrix(6.12323e-17 1 -1 6.12323e-17 1673.76 1071)">…</text><rect x="3347" y="513" width="865" height="1566" fill="#F8C8C0"/><text fill="#281B10" font-family="Arial,Arial_MSFontService,sans-serif" font-weight="700" font-size="73" transform="matrix(1 0 0 1 3651.04 601)">Metrics</text><rect x="3391" y="687" width="778" height="715" stroke="#000000" stroke-width="13.75" stroke-miterlimit="8" stroke-dasharray="55 41.25" fill="#FFFFFF"/><text fill="#281B10" font-family="Arial,Arial_MSFontService,sans-serif" font-weight="700" font-size="64" transform="matrix(1 0 0 1 3571.98 765)">Classification</text><text fill="#281B10" font-family="Arial,Arial_MSFontService,sans-serif" font-weight="400" font-size="64" transform="matrix(1 0 0 1 3708.34 842)">ROC</text><text fill="#281B10" font-family="Arial,Arial_MSFontService,sans-serif" font-weight="400" font-size="64" transform="matrix(1 0 0 1 3663.65 919)">AUROC</text><text fill="#281B10" font-family="Arial,Arial_MSFontService,sans-serif" font-weight="400" font-size="64" transform="matrix(1 0 0 1 3711.77 996)">PRC</text><text fill="#281B10" font-family="Arial,Arial_MSFontService,sans-serif" font-weight="400" font-size="64" transform="matrix(1 0 0 1 3667.09 1073)">AUPRC</text><text fill="#281B10" font-family="Arial,Arial_MSFontService,sans-serif" font-weight="400" font-size="64" transform="matrix(1 0 0 1 3647.9 1150)">Accuracy</text><text fill="#281B10" font-family="Arial,Arial_MSFontService,sans-serif" font-weight="400" font-size="64" transform="matrix(1 0 0 1 3532.45 1227)">Calibration Curve</text><rect x="3400" y="1500" width="759" height="453" stroke="#000000" stroke-width="13.75" stroke-miterlimit="8" stroke-dasharray="55 41.25" fill="#FFFFFF"/><text fill="#281B10" font-family="Arial,Arial_MSFontService,sans-serif" font-weight="700" font-size="64" transform="matrix(1 0 0 1 3605.5 1578)">Regression</text><text fill="#281B10" font-family="Arial,Arial_MSFontService,sans-serif" font-weight="400" font-size="64" transform="matrix(1 0 0 1 3710.07 1655)">MAE</text><text fill="#281B10" font-family="Arial,Arial_MSFontService,sans-serif" font-weight="400" font-size="64" transform="matrix(1 0 0 1 3744.44 1732)">R</text><text fill="#281B10" font-family="Arial,Arial_MSFontService,sans-serif" font-weight="400" font-size="43" transform="matrix(1 0 0 1 3790.85 1713)">2</text><text fill="#281B10" font-family="Arial,Arial_MSFontService,sans-serif" font-weight="400" font-size="64" transform="matrix(1 0 0 1 3686.85 1809)">RMSE</text><text font-family="Arial,Arial_MSFontService,sans-serif" font-weight="700" font-size="85" transform="matrix(6.12323e-17 1 -1 6.12323e-17 3793.23 1284)">…</text><text font-family="Arial,Arial_MSFontService,sans-serif" font-weight="700" font-size="85" transform="matrix(6.12323e-17 1 -1 6.12323e-17 3791.1 1851)">…</text><text font-family="Arial,Arial_MSFontService,sans-serif" font-weight="700" font-size="102" transform="matrix(-1.83697e-16 -1 1 -1.83697e-16 1375.92 251)">Config</text><text font-family="Arial,Arial_MSFontService,sans-serif" font-weight="700" font-size="128" transform="matrix(1 0 0 1 224.505 168)">(ML)</text><text font-family="Arial,Arial_MSFontService,sans-serif" font-weight="700" font-size="128" transform="matrix(1 0 0 1 9.93591 322)">Researcher</text><g clip-path="url(#clip10)"><g clip-path="url(#clip11)"><g clip-path="url(#clip12)"><path d="M136.744 385.369 105.187 314.128 105.187 265.837C105.297 259.99 108.356 254.593 113.316 251.494 115.909 250.314 117.055 247.256 115.876 244.662 115.824 244.547 115.767 244.433 115.706 244.322 114.834 242.259 112.654 241.07 110.447 241.453L55.9406 241.453C52.9595 241.27 50.3948 243.538 50.2117 246.519 50.2074 246.583 50.2046 246.648 50.2031 246.712 50.0353 248.879 51.1598 250.94 53.0719 251.972 58.1845 254.923 61.2961 260.413 61.2 266.316L61.2 314.606 30.1219 385.369C26.4246 393.356 29.9021 402.827 37.8891 406.525 38.1652 406.652 38.4451 406.772 38.7281 406.884 40.8221 407.863 43.1108 408.353 45.4219 408.319L121.922 408.319C130.825 408.393 138.104 401.235 138.178 392.331 138.179 392.242 138.179 392.152 138.178 392.062 138.213 389.751 137.722 387.462 136.744 385.369ZM94.1906 265.837 94.1906 276.834 72.675 276.834 72.675 265.837C72.8232 260.936 71.4902 256.104 68.85 251.972L98.0156 251.972C95.5891 256.196 94.2728 260.966 94.1906 265.837Z" transform="matrix(1 0 0 1 162 -395)"/><path d="M360.028 274.821C345.044 262.099 324.503 251.149 295.811 240.506 305.889 239.411 315.771 236.952 325.187 233.196 325.187 233.196 314.377 226.727 307.673 200.248 303.423 183.614 319.689 142.027 319.827 112.751 319.827 89.3233 313.172 78.838 300.607 71.7235 293.349 67.6069 276.624 71.3984 276.624 71.3984 276.624 71.3984 267.975 55.0226 239.062 46.01 215.29 39.5366 189.919 42.7789 168.539 55.0226 150.657 66.5741 142.013 79.2827 141.597 122.993 141.229 163.055 146.727 198.632 144.188 215.405 143.016 224.69 139.484 233.52 133.928 241.051 142.706 241.788 151.523 241.98 160.325 241.625 144.45 247.376 129.184 254.685 114.75 263.447L114.75 286.717C129.483 275.913 145.689 267.277 162.873 261.071L153.693 302.089C152.827 305.954 155.258 309.789 159.123 310.655 159.639 310.771 160.165 310.829 160.693 310.829L178.097 310.829 168.922 328.52C167.264 331.716 168.234 335.646 171.188 337.704L222.376 373.416 222.376 401.572C197.28 401.383 172.222 399.612 147.349 396.27 146.254 403.491 142.098 409.888 135.945 413.822 167.355 418.846 199.127 421.252 230.934 421.018 292.134 421.018 352.856 413.1 373.894 397.322L377.719 394.453 377.719 310.595C377.198 296.692 370.76 283.674 360.028 274.821ZM262.969 306.956 274.668 329.548 242.232 352.163 271.738 252.713 280.822 257.341 289.576 296.5 269.352 296.5C265.391 296.495 262.176 299.703 262.172 303.664 262.171 304.809 262.444 305.938 262.969 306.956ZM172.168 157.781 172.168 133.598C174.5 133.457 176.821 133.179 179.12 132.766 195.161 130.651 210.814 126.246 225.603 119.684 242.228 111.327 251.761 107.224 265.555 94.7309 267.378 92.9422 270.305 92.9695 272.094 94.7916 272.771 95.4815 273.215 96.3666 273.363 97.3223 274.463 104.92 277.322 121.649 281.128 128.324 282.844 131.605 284.78 134.767 286.923 137.786L286.923 157.781C286.888 189.454 261.221 215.122 229.548 215.156L229.548 215.156C197.873 215.125 172.202 189.456 172.168 157.781ZM184.556 329.557 196.275 306.956C198.097 303.439 196.723 299.111 193.206 297.289 192.187 296.761 191.055 296.485 189.906 296.485L169.667 296.485 178.427 257.327 187.511 252.699 217.016 352.149ZM229.619 344.274 198.804 240.363C198.738 240.184 198.663 240.008 198.58 239.837 200.054 236.672 200.816 233.221 200.812 229.729L200.812 228.654C219.21 236.167 239.819 236.167 258.216 228.654L258.216 229.715C258.214 233.299 259.014 236.838 260.559 240.071 260.525 240.167 260.473 240.253 260.444 240.349ZM358.594 384.46C338.393 395.572 288.309 401.262 236.701 401.596L236.701 373.521 288.027 337.728C290.981 335.669 291.951 331.74 290.294 328.544L281.123 310.853 298.517 310.853C302.478 310.858 305.693 307.651 305.699 303.691 305.699 303.155 305.64 302.621 305.522 302.098L296.38 261.224C314.875 267.775 332.183 277.289 347.625 289.395 354.185 294.616 358.182 302.407 358.594 310.781Z" transform="matrix(1 0 0 1 162 -395)"/><path d="M97.0785 175.472C97.0785 179.961 93.4394 183.6 88.9504 183.6 84.4613 183.6 80.8222 179.961 80.8222 175.472 80.8222 170.983 84.4613 167.344 88.9504 167.344 93.4394 167.344 97.0785 170.983 97.0785 175.472Z" transform="matrix(1 0 0 1 162 -395)"/><path d="M94.6687 200.334C94.6687 204.823 98.3077 208.462 102.797 208.462 107.286 208.462 110.925 204.823 110.925 200.334 110.925 195.845 107.286 192.206 102.797 192.206 98.3077 192.206 94.6687 195.845 94.6687 200.334Z" transform="matrix(1 0 0 1 162 -395)"/><path d="M72.675 202.725C77.1641 202.725 80.8031 199.086 80.8031 194.597 80.8031 190.108 77.1641 186.469 72.675 186.469 68.1859 186.469 64.5469 190.108 64.5469 194.597 64.5469 199.086 68.1859 202.725 72.675 202.725Z" transform="matrix(1 0 0 1 162 -395)"/><path d="M66.9375 224.719C66.9375 230.792 71.8607 235.716 77.9344 235.716 84.008 235.716 88.9312 230.792 88.9312 224.719 88.9312 218.645 84.008 213.722 77.9344 213.722 71.8607 213.722 66.9375 218.645 66.9375 224.719Z" transform="matrix(1 0 0 1 162 -395)"/></g></g></g><text font-family="Arial,Arial_MSFontService,sans-serif" font-style="italic" font-weight="400" font-size="110" transform="matrix(1 0 0 1 840.826 144)">Define</text><path d="M0-10.3125 76.4141-10.3125 76.4141 2.47644 66.1016-7.83606 80.6407-7.83606 80.6407 12.7889 55.7891 12.7889 55.7891 0 66.1016 10.3125 0 10.3125ZM70.3282-28.4611 132.203 2.47644 70.3282 33.4139Z" fill="#281B10" transform="matrix(1.83697e-16 1 1 -1.83697e-16 1686.5 382.5)"/><path d="M0-10.3125 110.844-10.3125 110.844 424.971 100.532 414.659 789.352 414.659 779.04 424.971 779.04 394.032 799.665 394.032 799.665 435.284 90.2194 435.284 90.2194 0 100.532 10.3125 0 10.3125ZM758.415 404.345 789.352 342.47 820.29 404.345Z" fill="#281B10" transform="matrix(1.83697e-16 1 1 -1.83697e-16 2792.5 349.5)"/><path d="M2231.99 443.5 2231.99 1452.81 2126.06 1452.81 2126.06 1432.18 2221.67 1432.18 2211.36 1442.49 2211.36 443.5ZM2136.38 1473.43 2074.5 1442.49 2136.38 1411.56Z" fill="#281B10"/><path d="M2235.16 453.5 2235.16 1813.61 2126.06 1813.61 2126.06 1792.99 2224.84 1792.99 2214.53 1803.3 2214.53 453.5ZM2136.38 1834.24 2074.5 1803.3 2136.38 1772.36Z" fill="#281B10"/><path d="M3311.81 434.5 3311.81 1783.59 3179.06 1783.59 3179.06 1762.97 3301.5 1762.97 3291.19 1773.28 3291.19 434.5ZM3189.38 1804.22 3127.5 1773.28 3189.38 1742.34Z"/><path d="M0 0 464.502 0 464.502 101.436" stroke="#000000" stroke-width="20.625" stroke-miterlimit="8" fill="none" fill-rule="evenodd" transform="matrix(1 0 0 -1 3293.5 443.936)"/><path d="M2793.14 449.935 2211.5 447.5" stroke="#000000" stroke-width="20.625" stroke-miterlimit="8" fill="none" fill-rule="evenodd"/><g clip-path="url(#clip13)"><g clip-path="url(#clip14)"><g clip-path="url(#clip15)"><path d="M159.125 37.6875C159.125 46.9382 132.878 54.4374 100.5 54.4374 68.1222 54.4374 41.8749 46.9382 41.8749 37.6875 41.8749 28.4367 68.1222 20.9375 100.5 20.9375 132.878 20.9375 159.125 28.4367 159.125 37.6875Z" fill="#96D459" transform="matrix(1 0 0 1 -2803 544)"/><path d="M142.375 79.5624C139.862 79.5624 138.187 77.8874 138.187 75.3749 138.187 72.8624 139.862 71.1874 142.375 71.1874 144.887 71.1874 146.562 72.8624 146.562 75.3749 146.562 77.8874 144.887 79.5624 142.375 79.5624ZM100.5 62.8124C68.2562 62.8124 41.8749 55.2749 41.8749 46.0624L41.8749 79.5624C41.8749 88.7749 68.2562 96.3124 100.5 96.3124 132.744 96.3124 159.125 88.7749 159.125 79.5624L159.125 46.0624C159.125 55.2749 132.744 62.8124 100.5 62.8124Z" fill="#96D459" transform="matrix(1 0 0 1 -2803 544)"/><path d="M142.375 121.437C139.862 121.437 138.187 119.762 138.187 117.25 138.187 114.737 139.862 113.062 142.375 113.062 144.887 113.062 146.562 114.737 146.562 117.25 146.562 119.762 144.887 121.437 142.375 121.437ZM100.5 104.687C68.2562 104.687 41.8749 97.1499 41.8749 87.9374L41.8749 121.437C41.8749 130.65 68.2562 138.187 100.5 138.187 132.744 138.187 159.125 130.65 159.125 121.437L159.125 87.9374C159.125 97.1499 132.744 104.687 100.5 104.687Z" fill="#96D459" transform="matrix(1 0 0 1 -2803 544)"/><path d="M142.375 163.312C139.862 163.312 138.187 161.637 138.187 159.125 138.187 156.612 139.862 154.937 142.375 154.937 144.887 154.937 146.562 156.612 146.562 159.125 146.562 161.637 144.887 163.312 142.375 163.312ZM100.5 146.562C68.2562 146.562 41.8749 139.025 41.8749 129.812L41.8749 163.312C41.8749 172.525 68.2562 180.062 100.5 180.062 132.744 180.062 159.125 172.525 159.125 163.312L159.125 129.812C159.125 139.025 132.744 146.562 100.5 146.562Z" fill="#96D459" transform="matrix(1 0 0 1 -2803 544)"/></g></g></g><text fill="#281B10" font-family="Arial,Arial_MSFontService,sans-serif" font-weight="700" font-size="83" transform="matrix(1 0 0 1 -2871.51 832)">AUMCdb</text><g clip-path="url(#clip16)"><g clip-path="url(#clip17)"><g clip-path="url(#clip18)"><path d="M159.125 37.6875C159.125 46.9382 132.878 54.4374 100.5 54.4374 68.1222 54.4374 41.8749 46.9382 41.8749 37.6875 41.8749 28.4367 68.1222 20.9375 100.5 20.9375 132.878 20.9375 159.125 28.4367 159.125 37.6875Z" fill="#414BB2" transform="matrix(1 0 0 1 -2796 1345)"/><path d="M142.375 79.5624C139.862 79.5624 138.187 77.8874 138.187 75.3749 138.187 72.8624 139.862 71.1874 142.375 71.1874 144.887 71.1874 146.562 72.8624 146.562 75.3749 146.562 77.8874 144.887 79.5624 142.375 79.5624ZM100.5 62.8124C68.2562 62.8124 41.8749 55.2749 41.8749 46.0624L41.8749 79.5624C41.8749 88.7749 68.2562 96.3124 100.5 96.3124 132.744 96.3124 159.125 88.7749 159.125 79.5624L159.125 46.0624C159.125 55.2749 132.744 62.8124 100.5 62.8124Z" fill="#414BB2" transform="matrix(1 0 0 1 -2796 1345)"/><path d="M142.375 121.437C139.862 121.437 138.187 119.762 138.187 117.25 138.187 114.737 139.862 113.062 142.375 113.062 144.887 113.062 146.562 114.737 146.562 117.25 146.562 119.762 144.887 121.437 142.375 121.437ZM100.5 104.687C68.2562 104.687 41.8749 97.1499 41.8749 87.9374L41.8749 121.437C41.8749 130.65 68.2562 138.187 100.5 138.187 132.744 138.187 159.125 130.65 159.125 121.437L159.125 87.9374C159.125 97.1499 132.744 104.687 100.5 104.687Z" fill="#414BB2" transform="matrix(1 0 0 1 -2796 1345)"/><path d="M142.375 163.312C139.862 163.312 138.187 161.637 138.187 159.125 138.187 156.612 139.862 154.937 142.375 154.937 144.887 154.937 146.562 156.612 146.562 159.125 146.562 161.637 144.887 163.312 142.375 163.312ZM100.5 146.562C68.2562 146.562 41.8749 139.025 41.8749 129.812L41.8749 163.312C41.8749 172.525 68.2562 180.062 100.5 180.062 132.744 180.062 159.125 172.525 159.125 163.312L159.125 129.812C159.125 139.025 132.744 146.562 100.5 146.562Z" fill="#414BB2" transform="matrix(1 0 0 1 -2796 1345)"/></g></g></g><text fill="#281B10" font-family="Arial,Arial_MSFontService,sans-serif" font-weight="700" font-size="83" transform="matrix(1 0 0 1 -2901.59 1628)">MIMIC</text><text fill="#281B10" font-family="Arial,Arial_MSFontService,sans-serif" font-weight="700" font-size="83" transform="matrix(1 0 0 1 -2658.67 1628)">-</text><text fill="#281B10" font-family="Arial,Arial_MSFontService,sans-serif" font-weight="700" font-size="83" transform="matrix(1 0 0 1 -2631.17 1628)">III/IV</text><g clip-path="url(#clip19)"><g clip-path="url(#clip20)"><g clip-path="url(#clip21)"><path d="M-2633.88 992.687C-2633.88 1001.94-2660.12 1009.44-2692.5 1009.44-2724.88 1009.44-2751.12 1001.94-2751.12 992.687-2751.12 983.437-2724.88 975.937-2692.5 975.937-2660.12 975.937-2633.88 983.437-2633.88 992.687Z" fill="#67C8B5"/><path d="M-2650.62 1034.56C-2653.14 1034.56-2654.81 1032.89-2654.81 1030.38-2654.81 1027.86-2653.14 1026.19-2650.62 1026.19-2648.11 1026.19-2646.44 1027.86-2646.44 1030.38-2646.44 1032.89-2648.11 1034.56-2650.62 1034.56ZM-2692.5 1017.81C-2724.74 1017.81-2751.12 1010.27-2751.12 1001.06L-2751.12 1034.56C-2751.12 1043.78-2724.74 1051.31-2692.5 1051.31-2660.26 1051.31-2633.88 1043.78-2633.88 1034.56L-2633.88 1001.06C-2633.88 1010.27-2660.26 1017.81-2692.5 1017.81Z" fill="#67C8B5"/><path d="M-2650.62 1076.44C-2653.14 1076.44-2654.81 1074.76-2654.81 1072.25-2654.81 1069.74-2653.14 1068.06-2650.62 1068.06-2648.11 1068.06-2646.44 1069.74-2646.44 1072.25-2646.44 1074.76-2648.11 1076.44-2650.62 1076.44ZM-2692.5 1059.69C-2724.74 1059.69-2751.12 1052.15-2751.12 1042.94L-2751.12 1076.44C-2751.12 1085.65-2724.74 1093.19-2692.5 1093.19-2660.26 1093.19-2633.88 1085.65-2633.88 1076.44L-2633.88 1042.94C-2633.88 1052.15-2660.26 1059.69-2692.5 1059.69Z" fill="#67C8B5"/><path d="M-2650.62 1118.31C-2653.14 1118.31-2654.81 1116.64-2654.81 1114.12-2654.81 1111.61-2653.14 1109.94-2650.62 1109.94-2648.11 1109.94-2646.44 1111.61-2646.44 1114.12-2646.44 1116.64-2648.11 1118.31-2650.62 1118.31ZM-2692.5 1101.56C-2724.74 1101.56-2751.12 1094.03-2751.12 1084.81L-2751.12 1118.31C-2751.12 1127.53-2724.74 1135.06-2692.5 1135.06-2660.26 1135.06-2633.88 1127.53-2633.88 1118.31L-2633.88 1084.81C-2633.88 1094.03-2660.26 1101.56-2692.5 1101.56Z" fill="#67C8B5"/></g></g></g><text fill="#281B10" font-family="Arial,Arial_MSFontService,sans-serif" font-weight="700" font-size="83" transform="matrix(1 0 0 1 -2792.51 1244)">eICU</text><g clip-path="url(#clip22)"><g clip-path="url(#clip23)"><g clip-path="url(#clip24)"><path d="M159.125 37.6875C159.125 46.9383 132.878 54.4375 100.5 54.4375 68.1223 54.4375 41.875 46.9383 41.875 37.6875 41.875 28.4367 68.1223 20.9375 100.5 20.9375 132.878 20.9375 159.125 28.4367 159.125 37.6875Z" fill="#FAC710" transform="matrix(1 0 0 1.00498 -2804 186)"/><path d="M142.375 79.5625C139.863 79.5625 138.188 77.8875 138.188 75.375 138.188 72.8625 139.863 71.1875 142.375 71.1875 144.888 71.1875 146.563 72.8625 146.563 75.375 146.563 77.8875 144.888 79.5625 142.375 79.5625ZM100.5 62.8125C68.2563 62.8125 41.875 55.275 41.875 46.0625L41.875 79.5625C41.875 88.775 68.2563 96.3125 100.5 96.3125 132.744 96.3125 159.125 88.775 159.125 79.5625L159.125 46.0625C159.125 55.275 132.744 62.8125 100.5 62.8125Z" fill="#FAC710" transform="matrix(1 0 0 1.00498 -2804 186)"/><path d="M142.375 121.438C139.863 121.438 138.188 119.763 138.188 117.25 138.188 114.738 139.863 113.063 142.375 113.063 144.888 113.063 146.563 114.738 146.563 117.25 146.563 119.763 144.888 121.438 142.375 121.438ZM100.5 104.688C68.2563 104.688 41.875 97.15 41.875 87.9375L41.875 121.438C41.875 130.65 68.2563 138.188 100.5 138.188 132.744 138.188 159.125 130.65 159.125 121.438L159.125 87.9375C159.125 97.15 132.744 104.688 100.5 104.688Z" fill="#FAC710" transform="matrix(1 0 0 1.00498 -2804 186)"/><path d="M142.375 163.313C139.863 163.313 138.188 161.638 138.188 159.125 138.188 156.613 139.863 154.938 142.375 154.938 144.888 154.938 146.563 156.613 146.563 159.125 146.563 161.638 144.888 163.313 142.375 163.313ZM100.5 146.563C68.2563 146.563 41.875 139.025 41.875 129.813L41.875 163.313C41.875 172.525 68.2563 180.063 100.5 180.063 132.744 180.063 159.125 172.525 159.125 163.313L159.125 129.813C159.125 139.025 132.744 146.563 100.5 146.563Z" fill="#FAC710" transform="matrix(1 0 0 1.00498 -2804 186)"/></g></g></g><text font-family="Arial,Arial_MSFontService,sans-serif" font-weight="700" font-size="83" transform="matrix(1 0 0 1 -2819.56 460)">HiRID</text><path d="M-2602 630.25-2410.32 630.25-2410.32 1446.53-2424.07 1432.78-2314.88 1432.78-2314.88 1460.28-2437.82 1460.28-2437.82 644-2424.07 657.75-2602 657.75ZM-2328.63 1405.28-2246.13 1446.53-2328.63 1487.78Z" fill="#281B10"/><path d="M-2595 1431.25-2406.91 1431.25-2406.91 1446.55-2420.66 1432.8-2315.07 1432.8-2315.07 1460.3-2434.41 1460.3-2434.41 1445-2420.66 1458.75-2595 1458.75ZM-2328.82 1405.3-2246.32 1446.55-2328.82 1487.8Z" fill="#281B10"/><rect x="-2239" y="654" width="869" height="1559" fill="#D3F5F2"/><rect x="-1144" y="654" width="870" height="1559" fill="#DFDBE0"/><g clip-path="url(#clip25)"><g clip-path="url(#clip26)"><g clip-path="url(#clip27)"><path d="M310.917 144.083 235.083 144.083 235.083 98.5833 310.917 98.5833 310.917 144.083ZM310.917 204.75 235.083 204.75 235.083 159.25 310.917 159.25 310.917 204.75ZM310.917 265.417 235.083 265.417 235.083 219.917 310.917 219.917 310.917 265.417ZM144.083 265.417 144.083 219.917 219.917 219.917 219.917 265.417 144.083 265.417ZM53.0833 265.417 53.0833 219.917 128.917 219.917 128.917 265.417 53.0833 265.417ZM53.0833 159.25 128.917 159.25 128.917 204.75 53.0833 204.75 53.0833 159.25ZM53.0833 98.5833 128.917 98.5833 128.917 144.083 53.0833 144.083 53.0833 98.5833ZM219.917 159.25 219.917 204.75 144.083 204.75 144.083 159.25 219.917 159.25ZM219.917 98.5833 219.917 144.083 144.083 144.083 144.083 98.5833 219.917 98.5833ZM30.3333 75.8333 30.3333 288.167 333.667 288.167 333.667 75.8333 30.3333 75.8333Z" fill="#FAC710" transform="matrix(1 0 0 1.05769 -706 1078)"/></g></g></g><g clip-path="url(#clip28)"><g clip-path="url(#clip29)"><g clip-path="url(#clip30)"><path d="M311.771 144.479 235.729 144.479 235.729 98.8542 311.771 98.8542 311.771 144.479ZM311.771 205.313 235.729 205.313 235.729 159.688 311.771 159.688 311.771 205.313ZM311.771 266.146 235.729 266.146 235.729 220.521 311.771 220.521 311.771 266.146ZM144.479 266.146 144.479 220.521 220.521 220.521 220.521 266.146 144.479 266.146ZM53.2292 266.146 53.2292 220.521 129.271 220.521 129.271 266.146 53.2292 266.146ZM53.2292 159.688 129.271 159.688 129.271 205.313 53.2292 205.313 53.2292 159.688ZM53.2292 98.8542 129.271 98.8542 129.271 144.479 53.2292 144.479 53.2292 98.8542ZM220.521 159.688 220.521 205.313 144.479 205.313 144.479 159.688 220.521 159.688ZM220.521 98.8542 220.521 144.479 144.479 144.479 144.479 98.8542 220.521 98.8542ZM30.4167 76.0417 30.4167 288.958 334.583 288.958 334.583 76.0417 30.4167 76.0417Z" fill="#96D459" transform="matrix(1 0 0 1.05205 -1071 1357)"/></g></g></g><g clip-path="url(#clip31)"><g clip-path="url(#clip32)"><g clip-path="url(#clip33)"><path d="M311.771 144.479 235.729 144.479 235.729 98.8542 311.771 98.8542 311.771 144.479ZM311.771 205.313 235.729 205.313 235.729 159.688 311.771 159.688 311.771 205.313ZM311.771 266.146 235.729 266.146 235.729 220.521 311.771 220.521 311.771 266.146ZM144.479 266.146 144.479 220.521 220.521 220.521 220.521 266.146 144.479 266.146ZM53.2292 266.146 53.2292 220.521 129.271 220.521 129.271 266.146 53.2292 266.146ZM53.2292 159.688 129.271 159.688 129.271 205.313 53.2292 205.313 53.2292 159.688ZM53.2292 98.8542 129.271 98.8542 129.271 144.479 53.2292 144.479 53.2292 98.8542ZM220.521 159.688 220.521 205.313 144.479 205.313 144.479 159.688 220.521 159.688ZM220.521 98.8542 220.521 144.479 144.479 144.479 144.479 98.8542 220.521 98.8542ZM30.4167 76.0417 30.4167 288.958 334.583 288.958 334.583 76.0417 30.4167 76.0417Z" fill="#67C8B5" transform="matrix(1 0 0 1.05479 -1068 1078)"/></g></g></g><g clip-path="url(#clip34)"><g clip-path="url(#clip35)"><g clip-path="url(#clip36)"><path d="M310.917 144.083 235.083 144.083 235.083 98.5833 310.917 98.5833 310.917 144.083ZM310.917 204.75 235.083 204.75 235.083 159.25 310.917 159.25 310.917 204.75ZM310.917 265.417 235.083 265.417 235.083 219.917 310.917 219.917 310.917 265.417ZM144.083 265.417 144.083 219.917 219.917 219.917 219.917 265.417 144.083 265.417ZM53.0833 265.417 53.0833 219.917 128.917 219.917 128.917 265.417 53.0833 265.417ZM53.0833 159.25 128.917 159.25 128.917 204.75 53.0833 204.75 53.0833 159.25ZM53.0833 98.5833 128.917 98.5833 128.917 144.083 53.0833 144.083 53.0833 98.5833ZM219.917 159.25 219.917 204.75 144.083 204.75 144.083 159.25 219.917 159.25ZM219.917 98.5833 219.917 144.083 144.083 144.083 144.083 98.5833 219.917 98.5833ZM30.3333 75.8333 30.3333 288.167 333.667 288.167 333.667 75.8333 30.3333 75.8333Z" fill="#414BB2" transform="matrix(1 0 0 1.05494 -700 1357)"/></g></g></g><text font-family="Arial,Arial_MSFontService,sans-serif" font-weight="700" font-size="110" transform="matrix(1 0 0 1 -995.022 1955)">Compatible </text><text font-family="Arial,Arial_MSFontService,sans-serif" font-weight="700" font-size="110" transform="matrix(1 0 0 1 -815.126 2087)">Data</text><path d="M0.0393197-13.7499 157.445-13.2998 157.366 14.2001-0.0393197 13.7499ZM143.774-40.839 226.155 0.646719 143.538 41.6606Z" transform="matrix(1 0 0 -1 -1370 1433.65)"/><g clip-path="url(#clip37)"><g clip-path="url(#clip38)"><g clip-path="url(#clip39)"><path d="M-1430.48 1084.94-1531.77 1084.94-1519.72 1072.89C-1518.09 1071.26-1518.09 1068.69-1519.72 1067.2-1521.34 1065.57-1523.92 1065.57-1525.41 1067.2L-1544.36 1086.16C-1545.99 1087.78-1545.99 1090.35-1544.36 1091.84L-1525.41 1110.8C-1524.59 1111.61-1523.51 1112.02-1522.56 1112.02-1521.61 1112.02-1520.53 1111.61-1519.72 1110.8-1518.09 1109.18-1518.09 1106.6-1519.72 1105.11L-1531.77 1093.06-1430.48 1093.06C-1428.18 1093.06-1426.42 1091.3-1426.42 1089-1426.42 1086.7-1428.18 1084.94-1430.48 1084.94Z"/></g></g></g><g clip-path="url(#clip40)"><g clip-path="url(#clip41)"><g clip-path="url(#clip42)"><path d="M-1541.52 1093.06-1440.23 1093.06-1452.28 1105.11C-1453.91 1106.74-1453.91 1109.31-1452.28 1110.8-1450.66 1112.43-1448.08 1112.43-1446.59 1110.8L-1427.64 1091.84C-1426.01 1090.22-1426.01 1087.65-1427.64 1086.16L-1446.59 1067.2C-1447.41 1066.39-1448.49 1065.98-1449.44 1065.98-1450.39 1065.98-1451.47 1066.39-1452.28 1067.2-1453.91 1068.82-1453.91 1071.4-1452.28 1072.89L-1440.23 1084.94-1541.52 1084.94C-1543.82 1084.94-1545.58 1086.7-1545.58 1089-1545.58 1091.3-1543.82 1093.06-1541.52 1093.06Z"/></g></g></g><g clip-path="url(#clip43)"><g clip-path="url(#clip44)"><g clip-path="url(#clip45)"><path d="M129.444 32.7489 116.251 19.5562 74.4999 61.3072 32.7489 19.5562 19.5562 32.7489 61.3072 74.4999 19.5562 116.251 32.7489 129.444 74.4999 87.6926 116.251 129.444 129.444 116.251 87.6926 74.4999Z" transform="matrix(1 0 0 1 -1561 1315)"/></g></g></g><g clip-path="url(#clip46)"><g clip-path="url(#clip47)"><g clip-path="url(#clip48)"><path d="M113.125 4.84375 4.84375 113.125 36.875 145.156 145 37.0312 113.125 4.84375ZM115.312 53.4375 103.125 65.6249 93.4374 55.9375 89.0624 60.3124 98.7499 69.9999 86.5624 82.1874 76.8749 72.4999 72.4999 76.8749 82.1874 86.5624 69.9999 98.7499 60.3124 89.0624 55.9375 93.4374 65.6249 103.125 53.4375 115.312 43.75 105.625 39.375 110 49.0625 119.687 37.0312 131.719 18.2812 112.969 113.125 18.125 131.875 36.875 119.844 48.9062 110.156 39.2187 105.625 43.75 115.312 53.4375Z" transform="matrix(1 0 0 1.00667 -1561 1624)"/></g></g></g><text font-family="Arial,Arial_MSFontService,sans-serif" font-weight="700" font-size="110" transform="matrix(1 0 0 1 -2191.86 2105)">Harmonization</text><g clip-path="url(#clip49)"><g clip-path="url(#clip50)"><g clip-path="url(#clip51)"><path d="M-539.104-90.0962C-539.625-103.975-546.06-116.967-556.785-125.792-571.732-138.487-592.227-149.412-620.857-160.037-610.814-161.132-600.966-163.586-591.583-167.331-591.583-167.331-602.375-173.786-609.059-200.202-613.3-216.8-597.07-258.297-596.931-287.509-596.931-310.886-603.572-321.353-616.115-328.452-623.352-332.555-640.041-328.776-640.041-328.776-640.041-328.776-648.642-345.135-677.506-354.105-701.22-360.57-726.532-357.343-747.866-345.135-765.719-333.59-774.306-320.909-774.745-277.294-775.113-237.319-769.626-201.82-772.164-185.084-773.337-175.817-776.867-167.006-782.417-159.493-773.671-158.757-764.889-158.564-756.12-158.915-783.19-148.644-802.793-138.043-817.22-125.796-827.987-116.918-834.425-103.844-834.896-89.8958L-834.896-6.07697-830.65-3.2431C-807.273 12.3337-746.24 20.0958-685.65 20.0958-624.55 20.0958-563.912 12.2001-542.921-3.54367L-539.104-6.40616ZM-617.799-104.208C-612.529-104.208-608.257-99.9365-608.257-94.6666-608.257-89.3968-612.529-85.1249-617.799-85.1249-623.069-85.1249-627.341-89.3968-627.341-94.6666-627.341-99.9365-623.069-104.208-617.799-104.208ZM-744.25-266.708C-741.925-266.85-739.61-267.129-737.318-267.543-721.311-269.652-705.69-274.046-690.931-280.591-674.343-288.935-664.835-293.028-651.071-305.49-649.255-307.277-646.334-307.255-644.547-305.439-643.868-304.749-643.423-303.864-643.275-302.909-642.178-295.323-639.325-278.63-635.532-271.975-633.819-268.701-631.887-265.547-629.75-262.533L-629.75-242.563C-629.75-210.944-655.382-185.312-687-185.312-718.618-185.312-744.25-210.944-744.25-242.563ZM-649.687-152.351C-661.799-148.781-674.374-147.027-687-147.146-699.638-147.025-712.224-148.781-724.346-152.356-718.819-156.877-715.617-163.644-715.625-170.785L-715.625-171.864C-697.27-164.364-676.706-164.364-658.351-171.864L-658.351-170.804C-658.38-163.662-655.195-156.886-649.678-152.351ZM-558.187-16.382C-599.98 6.60867-770.013 6.41306-815.774-16.673L-815.774-89.6954C-815.419-98.1236-811.431-105.985-804.84-111.25-791.568-121.825-776.769-130.324-760.948-136.459L-760.948-116.03C-779.732-114.775-794.33-99.1798-794.344-80.3541-794.338-78.3298-793.47-76.4043-791.958-75.0585L-791.958-44.5728C-791.943-37.9304-787.36-32.1715-780.89-30.6659-778.481-27.5328-773.988-26.9465-770.855-29.3558-767.722-31.765-767.135-36.2582-769.545-39.3913-771.954-42.5238-776.447-43.1106-779.58-40.7013-779.687-40.6193-779.791-40.5338-779.893-40.4461-781.428-41.2538-782.397-42.8382-782.417-44.5728L-782.417-75.0585C-780.903-76.4029-780.035-78.3294-780.031-80.3541-780.031-92.2111-770.419-101.823-758.562-101.823L-753.792-101.823C-741.935-101.823-732.323-92.2111-732.323-80.3541-732.317-78.3298-731.449-76.4043-729.938-75.0585L-729.938-44.5728C-729.955-42.8391-730.922-41.2542-732.457-40.4461-735.449-43.0285-739.967-42.696-742.55-39.7042-745.132-36.7119-744.8-32.193-741.808-29.611-738.816-27.0286-734.297-27.3606-731.715-30.3529-731.626-30.455-731.542-30.559-731.459-30.6659-724.992-32.1735-720.411-37.9319-720.396-44.5728L-720.396-75.0585C-718.882-76.4029-718.014-78.3294-718.01-80.3541-718.031-99.1741-732.628-114.761-751.406-116.016L-751.406-140.3C-750.085-140.815-748.792-141.33-747.408-141.85-733.396-133.148-711.374-128.062-687-128.062-662.626-128.062-640.608-133.153-626.615-141.85-625.218-141.325-623.93-140.805-622.579-140.281L-622.579-113.392C-622.579-113.282-622.522-113.197-622.517-113.092-632.731-110.49-638.901-100.101-636.299-89.8877-633.697-79.6747-623.308-73.5042-613.095-76.1061-602.882-78.7082-596.711-89.0972-599.313-99.3101-601.038-106.08-606.325-111.367-613.095-113.092-613.095-113.197-613.038-113.287-613.038-113.392L-613.038-136.44C-597.215-130.315-582.415-121.819-569.146-111.245-562.592-106.036-558.6-98.2572-558.187-89.8958Z"/><path d="M-613.028-94.6666C-613.028-92.0318-615.164-89.8958-617.799-89.8958-620.434-89.8958-622.57-92.0318-622.57-94.6666-622.57-97.3015-620.434-99.4375-617.799-99.4375-615.164-99.4375-613.028-97.3015-613.028-94.6666Z"/></g></g></g><text font-family="Arial,Arial_MSFontService,sans-serif" font-weight="700" font-size="128" transform="matrix(1 0 0 1 -926.834 173)">Clinical </text><text font-family="Arial,Arial_MSFontService,sans-serif" font-weight="700" font-size="128" transform="matrix(1 0 0 1 -898.486 327)">Expert</text><g clip-path="url(#clip52)"><g clip-path="url(#clip53)"><g clip-path="url(#clip54)"><path d="M-2636.88 1832.69C-2636.88 1841.94-2663.12 1849.44-2695.5 1849.44-2727.88 1849.44-2754.12 1841.94-2754.12 1832.69-2754.12 1823.44-2727.88 1815.94-2695.5 1815.94-2663.12 1815.94-2636.88 1823.44-2636.88 1832.69Z" fill="#BFBFBF"/><path d="M-2653.62 1874.56C-2656.14 1874.56-2657.81 1872.89-2657.81 1870.38-2657.81 1867.86-2656.14 1866.19-2653.62 1866.19-2651.11 1866.19-2649.44 1867.86-2649.44 1870.38-2649.44 1872.89-2651.11 1874.56-2653.62 1874.56ZM-2695.5 1857.81C-2727.74 1857.81-2754.12 1850.28-2754.12 1841.06L-2754.12 1874.56C-2754.12 1883.78-2727.74 1891.31-2695.5 1891.31-2663.26 1891.31-2636.88 1883.78-2636.88 1874.56L-2636.88 1841.06C-2636.88 1850.28-2663.26 1857.81-2695.5 1857.81Z" fill="#BFBFBF"/><path d="M-2653.62 1916.44C-2656.14 1916.44-2657.81 1914.76-2657.81 1912.25-2657.81 1909.74-2656.14 1908.06-2653.62 1908.06-2651.11 1908.06-2649.44 1909.74-2649.44 1912.25-2649.44 1914.76-2651.11 1916.44-2653.62 1916.44ZM-2695.5 1899.69C-2727.74 1899.69-2754.12 1892.15-2754.12 1882.94L-2754.12 1916.44C-2754.12 1925.65-2727.74 1933.19-2695.5 1933.19-2663.26 1933.19-2636.88 1925.65-2636.88 1916.44L-2636.88 1882.94C-2636.88 1892.15-2663.26 1899.69-2695.5 1899.69Z" fill="#BFBFBF"/><path d="M-2653.62 1958.31C-2656.14 1958.31-2657.81 1956.64-2657.81 1954.13-2657.81 1951.61-2656.14 1949.94-2653.62 1949.94-2651.11 1949.94-2649.44 1951.61-2649.44 1954.13-2649.44 1956.64-2651.11 1958.31-2653.62 1958.31ZM-2695.5 1941.56C-2727.74 1941.56-2754.12 1934.03-2754.12 1924.81L-2754.12 1958.31C-2754.12 1967.53-2727.74 1975.06-2695.5 1975.06-2663.26 1975.06-2636.88 1967.53-2636.88 1958.31L-2636.88 1924.81C-2636.88 1934.03-2663.26 1941.56-2695.5 1941.56Z" fill="#BFBFBF"/></g></g></g><text fill="#281B10" font-family="Arial,Arial_MSFontService,sans-serif" font-weight="700" font-size="83" transform="matrix(1 0 0 1 -2885.39 2101)">Dataset X</text><text font-family="Arial,Arial_MSFontService,sans-serif" font-weight="700" font-size="128" transform="matrix(6.12323e-17 1 -1 6.12323e-17 -2701.53 1634)">…</text><path d="M0.0672228-13.7498 133.725-13.0964 133.591 14.4033-0.0672228 13.7498ZM120.11-40.6633 202.407 0.989567 119.707 41.8357Z" transform="matrix(1 0 0 -1 -274 1432.99)"/><path d="M0-13.75 27.5-13.75 27.5 13.75 0 13.75ZM55-13.75 82.5-13.75 82.5 13.75 55 13.75ZM110-13.75 137.5-13.75 137.5 13.75 110 13.75ZM165-13.75 192.5-13.75 192.5 13.75 165 13.75ZM233.606 0.144357 233.606 27.6444 206.106 27.6444 206.106 0.144357ZM233.606 55.1444 233.606 82.6444 206.106 82.6444 206.106 55.1444ZM233.606 110.144 233.606 137.644 206.106 137.644 206.106 110.144ZM233.606 165.144 233.606 192.644 206.106 192.644 206.106 165.144ZM233.606 220.144 233.606 247.644 206.106 247.644 206.106 220.144ZM233.606 275.144 233.606 302.644 206.106 302.644 206.106 275.144ZM233.606 330.144 233.606 357.644 206.106 357.644 206.106 330.144ZM233.606 385.144 233.606 412.644 206.106 412.644 206.106 385.144ZM234.289 411.961 261.789 411.961 261.789 439.461 234.289 439.461ZM289.289 411.961 316.789 411.961 316.789 439.461 289.289 439.461ZM344.289 411.961 370.961 411.961 370.961 439.461 344.289 439.461ZM357.211 384.461 439.711 425.711 357.211 466.961Z" transform="matrix(1.83697e-16 1 1 -1.83697e-16 -62.9999 213)"/><text font-family="Arial,Arial_MSFontService,sans-serif" font-style="italic" font-weight="400" font-size="110" transform="matrix(1 0 0 1 -403.591 183)">Define</text><text font-family="Arial,Arial_MSFontService,sans-serif" font-style="italic" font-weight="400" font-size="110" transform="matrix(1 0 0 1 -1675.48 173)">Harmonize</text><path d="M0-13.75 27.5-13.75 27.5 13.75 0 13.75ZM55-13.75 82.5-13.75 82.5 13.75 55 13.75ZM110-13.75 137.5-13.75 137.5 13.75 110 13.75ZM165-13.75 192.5-13.75 192.5 13.75 165 13.75ZM220-13.75 247.5-13.75 247.5 13.75 220 13.75ZM275-13.75 302.5-13.75 302.5 13.75 275 13.75ZM330-13.75 357.5-13.75 357.5 13.75 330 13.75ZM385-13.75 412.5-13.75 412.5 13.75 385 13.75ZM440-13.75 467.5-13.75 467.5 13.75 440 13.75ZM495-13.75 522.5-13.75 522.5 13.75 495 13.75ZM550-13.75 577.5-13.75 577.5 13.75 550 13.75ZM605-13.75 632.5-13.75 632.5 13.75 605 13.75ZM660-13.75 687.5-13.75 687.5 13.75 660 13.75ZM715-13.75 742.5-13.75 742.5 13.75 715 13.75ZM770-13.75 797.5-13.75 797.5 13.75 770 13.75ZM825-13.75 842.571-13.75 842.571 23.6792 815.071 23.6792 815.071 0 828.821 13.75 825 13.75ZM842.571 51.1792 842.571 78.6792 815.071 78.6792 815.071 51.1792ZM842.571 106.179 842.571 133.679 815.071 133.679 815.071 106.179ZM842.571 161.179 842.571 188.679 815.071 188.679 815.071 161.179ZM842.571 216.179 842.571 243.679 815.071 243.679 815.071 216.179ZM842.571 271.179 842.571 298.679 815.071 298.679 815.071 271.179ZM842.571 326.179 842.571 353.679 815.071 353.679 815.071 326.179ZM842.571 381.179 842.571 381.64 815.071 381.64 815.071 381.179ZM870.071 367.89 828.821 450.39 787.571 367.89Z" transform="matrix(-1 1.22465e-16 1.22465e-16 1 -975.179 204)"/><path d="M-2583 1895.08-2583 1910.87-2424.12 1910.87-2424.12 1450" stroke="#000000" stroke-width="27.5" stroke-miterlimit="8" stroke-dasharray="27.5 27.5" fill="none" fill-rule="evenodd"/><rect x="-71.9998" y="653" width="869" height="1559" stroke="#000000" stroke-width="13.75" stroke-miterlimit="8" stroke-dasharray="55 41.25" fill="#DCE9FC"/><text font-family="Arial,Arial_MSFontService,sans-serif" font-weight="700" font-size="110" transform="matrix(1 0 0 1 87.5014 1847)">Cohort and </text><text font-family="Arial,Arial_MSFontService,sans-serif" font-weight="700" font-size="110" transform="matrix(1 0 0 1 166.564 1979)">Variable </text><text font-family="Arial,Arial_MSFontService,sans-serif" font-weight="700" font-size="110" transform="matrix(1 0 0 1 136.199 2111)">Selection</text><text font-family="Arial,Arial_MSFontService,sans-serif" font-weight="700" font-size="110" transform="matrix(6.12323e-17 1 -1 6.12323e-17 370.1 1631)">…</text><text font-family="Arial,Arial_MSFontService,sans-serif" font-weight="400" font-size="83" transform="matrix(1 0 0 1 449.582 1280)">Sepsis</text><text font-family="Arial,Arial_MSFontService,sans-serif" font-weight="400" font-size="83" transform="matrix(1 0 0 1 102.785 975)">AKI</text><text font-family="Arial,Arial_MSFontService,sans-serif" font-weight="400" font-size="83" transform="matrix(1 0 0 1 15.3596 1280)">Mortality</text><text font-family="Arial,Arial_MSFontService,sans-serif" font-weight="400" font-size="83" transform="matrix(1 0 0 1 482.861 964)">LoS</text><text font-family="Arial,Arial_MSFontService,sans-serif" font-weight="400" font-size="83" transform="matrix(1 0 0 1 329.156 1609)">KF</text><rect x="51.9999" y="1015" width="133" height="82.9999" fill="#67C8B5"/><rect x="51.9999" y="1104" width="133" height="82.9999" fill="#96D459"/><rect x="192" y="1104" width="133" height="82.9999" fill="#414BB2"/><rect x="192" y="1014" width="134" height="83.9998" fill="#FAC710"/><rect x="47.0001" y="713" width="134" height="83.0002" fill="#67C8B5"/><rect x="47.0001" y="802" width="134" height="83.0002" fill="#96D459"/><rect x="187" y="802" width="134" height="83.0002" fill="#414BB2"/><rect x="187" y="713" width="134" height="83.0002" fill="#FAC710"/><g clip-path="url(#clip55)"><g clip-path="url(#clip56)"><g clip-path="url(#clip57)"><path d="M186.875 1099.42C186.875 1106.96 180.756 1113.08 173.208 1113.08 165.66 1113.08 159.542 1106.96 159.542 1099.42 159.542 1091.87 165.66 1085.75 173.208 1085.75 180.756 1085.75 186.875 1091.87 186.875 1099.42Z" fill="#FFFFFF"/><path d="M224.458 1099.42C224.458 1106.96 218.34 1113.08 210.792 1113.08 203.244 1113.08 197.125 1106.96 197.125 1099.42 197.125 1091.87 203.244 1085.75 210.792 1085.75 218.34 1085.75 224.458 1091.87 224.458 1099.42Z" fill="#FFFFFF"/><path d="M199.055 1123.13C200.055 1124.79 199.515 1126.96 197.849 1127.96 197.305 1128.28 196.683 1128.46 196.049 1128.46L187.951 1128.46C186.008 1128.45 184.437 1126.87 184.443 1124.93 184.445 1124.29 184.618 1123.67 184.945 1123.13L188.993 1116.4C189.985 1114.74 192.135 1114.19 193.796 1115.19 194.293 1115.48 194.709 1115.9 195.007 1116.4Z" fill="#FFFFFF"/><path d="M192 1029.38C162.805 1029.38 139.042 1055 139.042 1086.6 139.042 1099.13 142.629 1109.21 151 1119.99L151 1128.53C150.871 1136.42 156.809 1143.1 164.667 1143.9L164.667 1157.57C164.667 1160.4 166.961 1162.69 169.792 1162.69L214.208 1162.69C217.039 1162.69 219.333 1160.4 219.333 1157.57L219.333 1143.83C227.191 1143.04 233.129 1136.36 233 1128.46L233 1119.92C241.371 1109.14 244.958 1099.06 244.958 1086.54 244.958 1055 221.195 1029.38 192 1029.38ZM223.895 1114.98C223.154 1115.89 222.75 1117.03 222.75 1118.21L222.75 1128.46C222.817 1131.22 220.631 1133.52 217.867 1133.58 217.786 1133.59 217.706 1133.59 217.625 1133.58L214.208 1133.58C211.378 1133.58 209.083 1135.88 209.083 1138.71L209.083 1152.38 202.25 1152.38 202.25 1142.12 195.417 1142.12 195.417 1152.38 188.583 1152.38 188.583 1142.12 181.75 1142.12 181.75 1152.38 174.917 1152.38 174.917 1138.71C174.917 1135.88 172.622 1133.58 169.792 1133.58L166.375 1133.58C163.611 1133.65 161.317 1131.46 161.25 1128.7 161.248 1128.62 161.248 1128.54 161.25 1128.46L161.25 1118.21C161.25 1117.03 160.846 1115.89 160.105 1114.98 152.418 1105.5 149.292 1097.28 149.292 1086.6 149.292 1060.71 168.442 1039.62 192 1039.62 215.558 1039.62 234.708 1060.71 234.708 1086.6 234.708 1097.28 231.582 1105.5 223.895 1114.98Z" fill="#FFFFFF"/></g></g></g><rect x="424" y="1016" width="134" height="82.9999" fill="#67C8B5"/><rect x="424" y="1105" width="134" height="82.9999" fill="#96D459"/><rect x="565" y="1105" width="133" height="82.9999" fill="#414BB2"/><rect x="564" y="1016" width="134" height="82.9999" fill="#FAC710"/><g clip-path="url(#clip58)"><g clip-path="url(#clip59)"><g clip-path="url(#clip60)"><path d="M81.5 16.9792C81.5 16.9792 39.0521 76.7458 39.0521 103.573 39.0521 127.004 58.0687 146.021 81.5 146.021 104.931 146.021 123.948 127.004 123.948 103.573 123.948 76.576 81.5 16.9792 81.5 16.9792Z" fill="#FFFFFF" transform="matrix(1 0 0 1.00614 476 1017)"/></g></g></g><g clip-path="url(#clip61)"><g clip-path="url(#clip62)"><g clip-path="url(#clip63)"><path d="M127.463 30.0022C119.357 25.4134 109.072 28.0801 104.218 36.0298 94.5569 50.8186 105.644 61.8721 108.174 71.3125L95.0833 71.3125C89.4569 71.3125 84.8958 75.8736 84.8958 81.5L84.8958 137.531 91.6875 137.531 91.6875 81.5C91.6875 79.6245 93.2078 78.1041 95.0833 78.1041L108.174 78.1041C105.644 87.5446 94.5909 98.598 104.218 113.387 109.072 121.336 119.357 124.003 127.463 119.414 140.927 111.451 149.417 94.3192 149.417 74.7083 149.417 55.0974 140.927 37.9654 127.463 30.0022Z" fill="#FFFFFF" transform="matrix(1.00614 0 0 1 101 713)"/><path d="M67.9166 71.3125 54.8257 71.3125C57.3556 61.8721 68.409 50.8186 58.7819 36.0298 53.9275 28.0801 43.6431 25.4134 35.5374 30.0022 22.0729 37.9654 13.5833 55.0974 13.5833 74.7083 13.5833 94.3192 22.0729 111.451 35.5374 119.414 43.6431 124.003 53.9275 121.336 58.7819 113.387 68.443 98.598 57.3556 87.5446 54.8257 78.1041L67.9166 78.1041C69.7922 78.1041 71.3125 79.6245 71.3125 81.5L71.3125 137.531 78.1041 137.531 78.1041 81.5C78.1041 75.8736 73.543 71.3125 67.9166 71.3125Z" fill="#FFFFFF" transform="matrix(1.00614 0 0 1 101 713)"/></g></g></g><rect x="-2902" y="1770" width="411" height="376" stroke="#000000" stroke-width="13.75" stroke-miterlimit="8" stroke-dasharray="55 41.25" fill="none"/><rect x="426" y="714" width="133" height="83.0002" fill="#67C8B5"/><rect x="426" y="803" width="133" height="82.9998" fill="#96D459"/><rect x="566" y="803" width="133" height="82.9998" fill="#414BB2"/><rect x="566" y="714" width="134" height="83.0002" fill="#FAC710"/><g clip-path="url(#clip64)"><g clip-path="url(#clip65)"><g clip-path="url(#clip66)"><path d="M124.407 23.7607 128.991 23.7607 128.991 13.5834 33.9584 13.5834 33.9584 23.7709 38.373 23.7709C40.2407 42.6059 51.1074 70.0986 66.8811 81.4679 51.0955 92.827 40.0709 120.318 38.373 139.155L33.9584 139.155 33.9584 149.342 128.988 149.342 128.988 139.155 124.403 139.155C122.705 120.318 111.669 92.827 95.8934 81.4577 111.679 70.0884 122.709 42.5957 124.407 23.7607ZM114.17 23.7607C112.275 38.4224 106.852 52.4058 98.3656 64.5108L64.4615 64.5108C56.0437 52.365 50.614 38.4025 48.6148 23.7607ZM72.8408 89.7232C73.5931 89.1747 74.2667 88.5258 74.8426 87.7943L78.1043 92.2361 78.1043 101.875 50.3111 129.667C54.0329 114.362 62.604 97.0921 72.8408 89.7232ZM112.402 129.381 84.896 101.875 84.896 92.1138 88.0134 87.8911C88.5745 88.583 89.2235 89.199 89.9439 89.7232 100.106 97.0463 108.64 114.146 112.402 129.381Z" fill="#FFFFFF" transform="matrix(1 0 0 1.00613 479 714)"/></g></g></g><rect x="240" y="1343" width="134" height="82.9999" fill="#67C8B5"/><rect x="240" y="1432" width="134" height="82.9999" fill="#96D459"/><rect x="381" y="1432" width="133" height="82.9999" fill="#414BB2"/><rect x="381" y="1343" width="133" height="82.9999" fill="#FAC710"/><g clip-path="url(#clip67)"><g clip-path="url(#clip68)"><g clip-path="url(#clip69)"><path d="M120.021 83.1979 133.745 59.4271 117.08 30.5625 89.5345 30.5625 79.2417 12.7344 70.4211 17.8281 80.7614 35.7394 70.0272 54.3333 49.3788 54.3333 39.0877 36.5052 30.2586 41.5989 40.3238 59.0331 26.3788 83.1979 43.0439 112.062 70.0272 112.062 83.7497 135.833 111.923 135.833 121.231 151.963 130.06 146.87 120.382 130.113 133.745 106.969ZM121.982 59.4271 111.197 78.1041 90.0982 78.1041 79.0821 59.023 89.633 40.75 111.197 40.75ZM38.142 83.1979 48.9255 64.5208 70.0272 64.5208 80.8089 83.1979 70.0272 101.875 48.9255 101.875ZM79.0821 107.373 90.0982 88.2916 111.197 88.2916 121.982 106.969 111.197 125.646 89.633 125.646Z" fill="#FFFFFF" transform="matrix(1 0 0 1.00614 296 1343)"/></g></g></g><path d="M746.144 185.251 773.643 185.539 773.354 213.038 745.856 212.749ZM801.141 185.827 828.64 186.116 828.351 213.614 800.853 213.326ZM856.138 186.404 883.637 186.692 883.348 214.191 855.85 213.903ZM911.135 186.981 938.634 187.269 938.345 214.768 910.847 214.479ZM966.132 187.557 993.63 187.846 993.342 215.344 965.844 215.056ZM1021.13 188.134 1048.63 188.422 1048.34 215.921 1020.84 215.632ZM1076.13 188.711 1103.62 188.999 1103.34 216.497 1075.84 216.209ZM1131.12 189.287 1158.62 189.576 1158.33 217.074 1130.83 216.786ZM1167.57 162.168 1249.64 204.281 1166.71 244.663Z"/><text font-family="Arial,Arial_MSFontService,sans-serif" font-weight="400" font-size="83" transform="matrix(1 0 0 1 -2021.25 1069)">Variable </text><text font-family="Arial,Arial_MSFontService,sans-serif" font-weight="400" font-size="83" transform="matrix(1 0 0 1 -2031.17 1168)">Mapping</text><text font-family="Arial,Arial_MSFontService,sans-serif" font-weight="400" font-size="83" transform="matrix(1 0 0 1 -2001.38 1366)">Artifact </text><text font-family="Arial,Arial_MSFontService,sans-serif" font-weight="400" font-size="83" transform="matrix(1 0 0 1 -2035.75 1465)">Removal</text><text font-family="Arial,Arial_MSFontService,sans-serif" font-weight="400" font-size="83" transform="matrix(1 0 0 1 -1946.38 1663)">Unit </text><text font-family="Arial,Arial_MSFontService,sans-serif" font-weight="400" font-size="83" transform="matrix(1 0 0 1 -2138.88 1762)">Harmonization</text><path d="M-2603 273.25-2410.62 273.25-2410.62 1446.88-2424.37 1433.13-2314.5 1433.13-2314.5 1460.63-2438.12 1460.63-2438.12 287-2424.37 300.75-2603 300.75ZM-2328.25 1405.63-2245.75 1446.88-2328.25 1488.13Z" fill="#281B10"/><path d="M-2592 1042.25-2411.04 1042.25-2411.04 1447.21-2424.79 1433.46-2315.02 1433.46-2315.02 1460.96-2438.54 1460.96-2438.54 1056-2424.79 1069.75-2592 1069.75ZM-2328.77 1405.96-2246.27 1447.21-2328.77 1488.46Z" fill="#281B10"/><path d="M-406 222-57.2935 227.721" stroke="#000000" stroke-width="27.5" stroke-miterlimit="8" stroke-dasharray="27.5 27.5" fill="none" fill-rule="evenodd"/></g></svg>